<?xml version="1.0" standalone="no"?>
<!DOCTYPE svg PUBLIC "-//W3C//DTD SVG 20010904//EN"
 "http://www.w3.org/TR/2001/REC-SVG-20010904/DTD/svg10.dtd">
<svg version="1.0" xmlns="http://www.w3.org/2000/svg"
 width="512.000000pt" height="512.000000pt" viewBox="0 0 512.000000 512.000000"
 preserveAspectRatio="xMidYMid meet">
<metadata>
Created by potrace 1.14, written by Peter Selinger 2001-2017
</metadata>
<g transform="translate(0.000000,512.000000) scale(0.100000,-0.100000)"
fill="#000000" stroke="none">
<path d="M2370 4963 c-464 -35 -936 -221 -1306 -514 -925 -734 -1183 -2033
-607 -3064 440 -789 1293 -1268 2193 -1232 693 29 1317 335 1762 867 728 870
743 2145 37 3036 -497 626 -1279 967 -2079 907z m540 -38 c515 -80 977 -313
1340 -675 634 -635 859 -1569 584 -2422 -169 -524 -498 -957 -962 -1264 -597
-397 -1355 -500 -2044 -278 -524 169 -957 498 -1264 962 -397 597 -500 1355
-278 2044 118 366 315 688 584 958 390 389 893 628 1450 689 122 14 465 5 590
-14z"/>
<path d="M2360 4720 c-846 -82 -1573 -652 -1849 -1452 -81 -237 -115 -448
-115 -718 0 -269 40 -496 129 -735 282 -763 952 -1297 1765 -1406 139 -19 441
-16 578 5 650 99 1207 468 1548 1026 152 249 254 543 295 850 19 137 16 440
-5 578 -145 959 -888 1702 -1838 1837 -133 19 -387 26 -508 15z m390 -21 c265
-24 521 -96 759 -215 244 -121 408 -241 596 -435 631 -652 782 -1627 379
-2438 -121 -244 -241 -408 -435 -596 -652 -631 -1627 -782 -2438 -379 -244
121 -408 241 -596 435 -631 652 -782 1627 -379 2438 121 244 241 408 435 596
448 434 1062 651 1679 594z"/>
<path d="M2299 4495 c-722 -99 -1337 -598 -1579 -1282 -312 -880 48 -1863 855
-2338 620 -365 1409 -353 2021 31 370 232 660 594 804 1001 283 798 12 1701
-662 2208 -279 211 -581 335 -926 380 -136 18 -381 18 -513 0z m641 -40 c775
-163 1351 -740 1517 -1520 26 -122 27 -145 27 -375 0 -230 -1 -253 -27 -375
-167 -782 -740 -1355 -1522 -1522 -122 -26 -145 -27 -375 -27 -230 0 -253 1
-375 27 -782 167 -1355 740 -1522 1522 -26 122 -27 145 -27 375 0 230 1 253
27 375 129 605 502 1091 1042 1355 165 81 269 119 426 154 177 40 238 45 469
41 185 -3 232 -7 340 -30z"/>
<path d="M2357 4300 c-400 -50 -779 -238 -1053 -522 -301 -311 -473 -711 -491
-1143 -9 -232 16 -412 87 -626 229 -691 858 -1166 1585 -1196 232 -9 412 16
626 87 691 229 1166 858 1196 1585 9 232 -16 412 -87 626 -171 517 -575 925
-1089 1103 -178 62 -320 86 -526 91 -99 2 -211 0 -248 -5z m528 -40 c233 -46
442 -133 645 -267 156 -103 355 -302 459 -457 136 -205 218 -398 268 -635 24
-113 27 -148 27 -336 1 -181 -2 -226 -22 -325 -49 -239 -134 -446 -269 -650
-103 -156 -302 -355 -457 -459 -205 -136 -398 -218 -635 -268 -113 -24 -148
-27 -336 -27 -181 -1 -226 2 -325 22 -239 49 -446 134 -650 269 -156 103 -355
302 -459 457 -136 205 -218 398 -268 635 -24 113 -27 148 -27 336 -1 181 2
226 22 325 49 239 134 446 269 650 103 156 302 355 457 459 240 160 482 251
766 291 115 16 411 5 535 -20z"/>
<path d="M2349 4115 c-494 -68 -935 -374 -1172 -815 -287 -534 -237 -1195 128
-1681 78 -105 245 -266 350 -341 558 -391 1303 -381 1846 27 105 78 266 245
341 350 391 558 381 1303 -27 1846 -78 105 -245 266 -350 341 -325 228 -726
326 -1116 273z m514 -35 c757 -160 1277 -822 1244 -1585 -36 -856 -758 -1519
-1612 -1482 -856 36 -1519 758 -1482 1612 32 754 597 1370 1352 1474 112 16
384 5 498 -19z"/>
</g>
</svg>
