<svg xmlns="http://www.w3.org/2000/svg" viewBox="0 0 28.8 28.8"><defs><style>.a{fill:#a7005b;}.b{fill:none;}.c{fill:#fff;}</style></defs><title>icon-time</title><path class="a" d="M14.4,28.8A14.4,14.4,0,1,0,0,14.4,14.3,14.3,0,0,0,14.4,28.8"/><path class="b" d="M14.4,15.4l-3.9-3,.6-.8,3.3,2.6,5.2-3.8.6.8Z"/><path class="c" d="M14.4,4.5a9.8,9.8,0,1,0,9.8,9.8A9.8,9.8,0,0,0,14.4,4.5Zm0,18.4a8.5,8.5,0,1,1,8.5-8.5A8.5,8.5,0,0,1,14.4,22.9Z"/><polygon class="c" points="14.4 14.1 11.2 11.6 10.6 12.4 14.4 15.4 20.2 11.2 19.7 10.4 14.4 14.1"/></svg>