<svg xmlns="http://www.w3.org/2000/svg" viewBox="0 0 28.8 28.8"><defs><style>.a{fill:#a7005b;}.b{fill:#fff;}</style></defs><title>icon-mail</title><path class="a" d="M14.4,28.8A14.4,14.4,0,1,0,0,14.4,14.3,14.3,0,0,0,14.4,28.8"/><path class="b" d="M22.8,8.4H5.9A1.3,1.3,0,0,0,4.6,9.7V19a1.3,1.3,0,0,0,1.3,1.3H22.8A1.3,1.3,0,0,0,24.1,19V9.7A1.3,1.3,0,0,0,22.8,8.4Zm-.4,1s-7.4,4.3-8.1,4.4a38.2,38.2,0,0,1-8-4.4Zm.7,8.6a1.3,1.3,0,0,1-1.3,1.3H7A1.3,1.3,0,0,1,5.7,18V10.6c0-.2,7.5,4.4,8.7,4.4s6.3-3,8.7-4.4h0V18Z"/></svg>