<svg xmlns="http://www.w3.org/2000/svg" viewBox="0 0 28.8 28.8"><defs><style>.a{fill:#a7005b;}.b{fill:#fff;}</style></defs><title>icon-phone</title><path class="a" d="M14.4,28.8A14.4,14.4,0,1,0,0,14.4,14.3,14.3,0,0,0,14.4,28.8"/><path class="b" d="M18.9,23.6h0a13.4,13.4,0,0,1-5.1-1.9A17.8,17.8,0,0,1,5.4,11.1,4.7,4.7,0,0,1,8.2,5.3a1.6,1.6,0,0,1,2,.6l2.3,3.5a1.5,1.5,0,0,1-.4,2.1c-1.4,1.1-1.2,1.6-.1,3.2a8.6,8.6,0,0,0,3.2,2.7,1.1,1.1,0,0,0,1.4-.2l.6-.6a1.7,1.7,0,0,1,2.2-.2l1.2.8,2.2,1.4a1.6,1.6,0,0,1,.7,1.9A4.8,4.8,0,0,1,18.9,23.6ZM9,6.2H8.7a3.6,3.6,0,0,0-2.3,4.6,16.8,16.8,0,0,0,7.9,10,13.5,13.5,0,0,0,4.6,1.8,3.7,3.7,0,0,0,3.6-2.4.6.6,0,0,0-.3-.8L20,18.1l-1.2-.8a.8.8,0,0,0-1,.1l-.5.5a2,2,0,0,1-2.5.4,8.6,8.6,0,0,1-3.5-3c-1.1-1.7-1.7-2.8.3-4.4.3-.2.4-.5.1-.9S10.2,7.7,9.4,6.5,9.2,6.2,9,6.2Z"/></svg>