<svg xmlns="http://www.w3.org/2000/svg" viewBox="0 0 28.8 28.8"><defs><style>.a{fill:#a7005b;}.b{fill:#fff;}</style></defs><title>icon-address</title><path class="a" d="M14.4,0A14.4,14.4,0,1,0,28.8,14.4,14.3,14.3,0,0,0,14.4,0Z"/><path class="b" d="M15,5.4a1,1,0,0,0-1.3,0L4.2,14.7c-.3.3-.2.6.3.6H6.7a.9.9,0,0,1,.9.9v6.4a.9.9,0,0,0,.9.9h7.3V20.3h1.3v3.2h3.2a.9.9,0,0,0,.9-.9V16.2a.9.9,0,0,1,.9-.9h2.2c.5,0,.6-.3.3-.6Zm6.9,8.9H20.6a.5.5,0,0,0-.5.5v6.8a.9.9,0,0,1-.9.9H18.1V19.3H14.7v3.2H9.6a.9.9,0,0,1-.9-.9V14.8a.5.5,0,0,0-.5-.5H7c-.4,0-.4-.3-.1-.6l.7-.7.3-.3h0l.9-.9L13.7,7A1,1,0,0,1,15,7l5.8,5.7h0l1.1,1.1C22.3,14,22.3,14.3,21.9,14.3Z"/></svg>